<svg width="84" height="84" viewBox="0 0 84 84" fill="none" xmlns="http://www.w3.org/2000/svg">
<path d="M42 59.5V73.5M28 73.5H56M35 27.125C35.0009 26.6588 35.1259 26.2012 35.3622 25.7993C35.5986 25.3974 35.9377 25.0657 36.3447 24.8383C36.7518 24.6109 37.212 24.496 37.6782 24.5054C38.1443 24.5149 38.5995 24.6483 38.997 24.892L51.821 32.7635C52.2032 32.9984 52.5188 33.3272 52.7378 33.7188C52.9567 34.1103 53.0717 34.5514 53.0717 35C53.0717 35.4486 52.9567 35.8897 52.7378 36.2812C52.5188 36.6728 52.2032 37.0016 51.821 37.2365L38.997 45.1115C38.599 45.3555 38.1431 45.4889 37.6764 45.4981C37.2097 45.5072 36.7489 45.3917 36.3417 45.1635C35.9344 44.9353 35.5954 44.6026 35.3596 44.1997C35.1238 43.7968 34.9996 43.3383 35 42.8715V27.125ZM14 10.5H70C73.866 10.5 77 13.634 77 17.5V52.5C77 56.366 73.866 59.5 70 59.5H14C10.134 59.5 7 56.366 7 52.5V17.5C7 13.634 10.134 10.5 14 10.5Z" stroke="#158AD0" stroke-width="2" stroke-linecap="round" stroke-linejoin="round"/>
</svg>
