<svg width="84" height="84" viewBox="0 0 84 84" fill="none" xmlns="http://www.w3.org/2000/svg">
<path d="M68.0367 27.475C67.8652 28.602 68.2432 29.743 69.0482 30.548L74.5362 36.036C76.1812 37.681 77.0072 39.8405 77.0072 42C77.0072 44.1595 76.1847 46.3155 74.5362 47.964L68.8977 53.6025C68.5187 53.9811 68.0564 54.2656 67.5476 54.4334C67.0389 54.6011 66.498 54.6474 65.9682 54.5685C64.3232 54.3235 63.1612 52.8885 62.5802 51.331C62.0704 49.9547 61.2227 48.7288 60.1152 47.7658C59.0077 46.8028 57.6758 46.1338 56.242 45.8202C54.8083 45.5066 53.3187 45.5585 51.9103 45.9712C50.5019 46.3839 49.2198 47.1441 48.182 48.1819C47.1443 49.2197 46.3841 50.5017 45.9714 51.9101C45.5587 53.3185 45.5068 54.8081 45.8204 56.2419C46.1339 57.6756 46.803 59.0075 47.766 60.115C48.7289 61.2226 49.9549 62.0702 51.3312 62.58C52.8922 63.161 54.3237 64.3195 54.5687 65.968C54.6479 66.4978 54.6017 67.0388 54.434 67.5476C54.2662 68.0564 53.9815 68.5187 53.6027 68.8975L47.9677 74.5325C47.1851 75.3178 46.255 75.9406 45.2309 76.3653C44.2068 76.79 43.1088 77.008 42.0002 77.007C40.8923 77.0084 39.7951 76.7908 38.7715 76.3668C37.748 75.9427 36.8184 75.3205 36.0362 74.536L30.5482 69.048C30.1515 68.6506 29.6672 68.3518 29.1341 68.1755C28.601 67.9993 28.034 67.9504 27.4787 68.033C25.7532 68.292 24.5387 69.797 23.9087 71.421C23.3806 72.7764 22.523 73.9788 21.4133 74.9194C20.3037 75.8599 18.9771 76.509 17.5535 76.8079C16.1299 77.1068 14.6542 77.046 13.26 76.6312C11.8658 76.2163 10.597 75.4604 9.56839 74.4318C8.53981 73.4032 7.78389 72.1344 7.36901 70.7402C6.95413 69.346 6.89339 67.8703 7.19228 66.4467C7.49116 65.0231 8.14025 63.6965 9.08082 62.5868C10.0214 61.4772 11.2238 60.6196 12.5792 60.0915C14.2032 59.4615 15.7082 58.247 15.9637 56.5215C16.0467 55.9664 15.9984 55.3996 15.8228 54.8665C15.6471 54.3335 15.3489 53.849 14.9522 53.452L9.46417 47.964C8.67964 47.1818 8.05746 46.2521 7.6334 45.2286C7.20934 44.2051 6.99176 43.1079 6.99317 42C6.99317 39.8405 7.81917 37.681 9.46417 36.036L14.8052 30.695C15.6452 29.855 16.8387 29.4595 18.0147 29.6345C19.8172 29.904 21.0842 31.4825 21.7702 33.1695C22.3151 34.5056 23.182 35.6862 24.2937 36.6062C25.4054 37.5261 26.7274 38.1569 28.1418 38.4422C29.5563 38.7276 31.0194 38.6587 32.4008 38.2417C33.7822 37.8247 35.0391 37.0726 36.0594 36.0522C37.0797 35.0319 37.8319 33.775 38.2489 32.3936C38.6659 31.0122 38.7348 29.5491 38.4494 28.1347C38.1641 26.7202 37.5333 25.3982 36.6134 24.2866C35.6934 23.1749 34.5128 22.3079 33.1767 21.763C31.4897 21.077 29.9112 19.81 29.6417 18.0075C29.4667 16.8315 29.8587 15.6415 30.7022 14.798L36.0397 9.4605C36.8218 8.67702 37.751 8.05573 38.7738 7.63228C39.7967 7.20884 40.8931 6.99159 42.0002 6.993C44.1597 6.993 46.3192 7.819 47.9642 9.464L53.4522 14.952C54.2572 15.757 55.3982 16.135 56.5217 15.967C58.2472 15.708 59.4617 14.203 60.0917 12.579C60.6197 11.2236 61.4774 10.0212 62.587 9.08065C63.6967 8.14008 65.0233 7.49099 66.4469 7.1921C67.8705 6.89322 69.3461 6.95396 70.7404 7.36884C72.1346 7.78371 73.4034 8.53964 74.432 9.56822C75.4605 10.5968 76.2165 11.8656 76.6313 13.2598C77.0462 14.654 77.107 16.1297 76.8081 17.5533C76.5092 18.9769 75.8601 20.3035 74.9195 21.4132C73.979 22.5228 72.7766 23.3804 71.4212 23.9085C69.7972 24.5385 68.2922 25.7495 68.0367 27.475Z" stroke="#158AD0" stroke-width="2" stroke-linecap="round" stroke-linejoin="round"/>
</svg>
